{
  "source": "C:\\Users\\Peter\\Desktop\\stuff\\MIUN\\quantitative_research\\video_compression\\videos\\BVI-HD\\BVI-HD_CDVL_videos\\ORIG\\PlasmaSlowRandom_1920x1080_60fps.mp4",
  "output": "C:\\Users\\Peter\\Desktop\\stuff\\MIUN\\quantitative_research\\video_compression\\compressed_videos\\BVI-HD\\vp9\\8\\PlasmaSlowRandom_1920x1080_60fps_vp9.webm",
  "codec": "vp9",
  "ok": "Input #0, mov,mp4,m4a,3gp,3g2,mj2, from 'C:\\Users\\Peter\\Desktop\\stuff\\MIUN\\quantitative_research\\video_compression\\videos\\BVI-HD\\BVI-HD_CDVL_videos\\ORIG\\PlasmaSlowRandom_1920x1080_60fps.mp4':\n  Metadata:\n    major_brand     : isom\n    minor_version   : 512\n    compatible_brands: isomiso2avc1mp41\n    encoder         : Lavf54.28.101\n  Duration: 00:00:05.00, start: 0.000000, bitrate: 23030 kb/s\n  Stream #0:0[0x1](und): Video: h264 (High 4:4:4 Predictive) (avc1 / 0x31637661), yuv420p(progressive), 1920x1080, 23026 kb/s, 60 fps, 60 tbr, 60 tbn (default)\n    Metadata:\n      handler_name    : VideoHandler\n      vendor_id       : [0][0][0][0]\n[out#0/webm @ 0000017fb04d5040] Codec AVOption b:a (set bitrate (in bits/s)) has not been used for any stream. The most likely reason is either wrong type (e.g. a video option with no video streams) or that it is a private option of some decoder which was not actually used for any stream.\nStream mapping:\n  Stream #0:0 -> #0:0 (h264 (native) -> vp9 (libvpx-vp9))\nPress [q] to stop, [?] for help\n[libvpx-vp9 @ 0000017faff64a00] v1.15.2-100-g40561f514\nOutput #0, webm, to 'C:\\Users\\Peter\\Desktop\\stuff\\MIUN\\quantitative_research\\video_compression\\compressed_videos\\BVI-HD\\vp9\\8\\PlasmaSlowRandom_1920x1080_60fps_vp9.webm':\n  Metadata:\n    major_brand     : isom\n    minor_version   : 512\n    compatible_brands: isomiso2avc1mp41\n    encoder         : Lavf62.3.100\n  Stream #0:0(und): Video: vp9, yuv420p(tv, progressive), 1920x1080, q=2-31, 8000 kb/s, 60 fps, 1k tbn (default)\n    Metadata:\n      encoder         : Lavc62.11.100 libvpx-vp9\n      handler_name    : VideoHandler\n      vendor_id       : [0][0][0][0]\n    Side data:\n      cpb: bitrate max/min/avg: 0/0/0 buffer size: 8000000 vbv_delay: N/A\nframe=    6 fps=0.0 q=24.0 size=       1KiB time=00:00:00.10 bitrate=  50.6kbits/s speed=0.197x elapsed=0:00:00.50    \nframe=   15 fps= 15 q=11.0 size=       1KiB time=00:00:00.25 bitrate=  20.3kbits/s speed=0.242x elapsed=0:00:01.03    \nframe=   23 fps= 15 q=10.0 size=       1KiB time=00:00:00.38 bitrate=  13.2kbits/s speed=0.246x elapsed=0:00:01.55    \nframe=   33 fps= 16 q=9.0 size=       1KiB time=00:00:00.55 bitrate=   9.2kbits/s speed=0.265x elapsed=0:00:02.07    \nframe=   41 fps= 16 q=10.0 size=       1KiB time=00:00:00.68 bitrate=   7.4kbits/s speed=0.263x elapsed=0:00:02.59    \nframe=   49 fps= 16 q=5.0 size=       1KiB time=00:00:00.81 bitrate=   6.2kbits/s speed=0.262x elapsed=0:00:03.12    \nframe=   59 fps= 16 q=9.0 size=       1KiB time=00:00:00.98 bitrate=   5.1kbits/s speed=0.27x elapsed=0:00:03.64    \nframe=   68 fps= 16 q=9.0 size=       1KiB time=00:00:01.13 bitrate=   4.5kbits/s speed=0.272x elapsed=0:00:04.15    \nframe=   76 fps= 16 q=9.0 size=       1KiB time=00:00:01.26 bitrate=   4.0kbits/s speed=0.271x elapsed=0:00:04.67    \nframe=   85 fps= 16 q=4.0 size=       1KiB time=00:00:01.41 bitrate=   3.6kbits/s speed=0.272x elapsed=0:00:05.20    \nframe=   94 fps= 16 q=8.0 size=       1KiB time=00:00:01.56 bitrate=   3.2kbits/s speed=0.274x elapsed=0:00:05.72    \nframe=  104 fps= 17 q=9.0 size=       1KiB time=00:00:01.73 bitrate=   2.9kbits/s speed=0.278x elapsed=0:00:06.24    \nframe=  113 fps= 17 q=9.0 size=       1KiB time=00:00:01.88 bitrate=   2.7kbits/s speed=0.278x elapsed=0:00:06.77    \nframe=  122 fps= 17 q=9.0 size=       1KiB time=00:00:02.03 bitrate=   2.5kbits/s speed=0.279x elapsed=0:00:07.28    \nframe=  132 fps= 17 q=11.0 size=    1024KiB time=00:00:02.20 bitrate=3813.0kbits/s speed=0.281x elapsed=0:00:07.82    \nframe=  142 fps= 17 q=13.0 size=    1024KiB time=00:00:02.36 bitrate=3544.5kbits/s speed=0.284x elapsed=0:00:08.34    \nframe=  149 fps= 17 q=14.0 size=    1024KiB time=00:00:02.48 bitrate=3378.0kbits/s speed=0.281x elapsed=0:00:08.84    \nframe=  158 fps= 17 q=3.0 size=    1024KiB time=00:00:02.63 bitrate=3185.5kbits/s speed=0.281x elapsed=0:00:09.37    \nframe=  167 fps= 17 q=14.0 size=    1024KiB time=00:00:02.76 bitrate=3032.0kbits/s speed=0.279x elapsed=0:00:09.90    \nframe=  173 fps= 16 q=15.0 size=    1024KiB time=00:00:02.88 bitrate=2909.3kbits/s speed=0.275x elapsed=0:00:10.48    \nframe=  179 fps= 16 q=15.0 size=    1024KiB time=00:00:02.98 bitrate=2811.8kbits/s speed=0.271x elapsed=0:00:11.01    \nframe=  187 fps= 16 q=13.0 size=    1024KiB time=00:00:03.11 bitrate=2691.5kbits/s speed=0.27x elapsed=0:00:11.55    \nframe=  196 fps= 16 q=13.0 size=    1024KiB time=00:00:03.26 bitrate=2567.9kbits/s speed=0.271x elapsed=0:00:12.06    \nframe=  205 fps= 16 q=14.0 size=    1024KiB time=00:00:03.40 bitrate=2467.2kbits/s speed=0.27x elapsed=0:00:12.58    \nframe=  212 fps= 16 q=7.0 size=    1024KiB time=00:00:03.53 bitrate=2374.1kbits/s speed=0.269x elapsed=0:00:13.12    \nframe=  219 fps= 16 q=10.0 size=    1024KiB time=00:00:03.65 bitrate=2298.2kbits/s speed=0.267x elapsed=0:00:13.65    \nframe=  227 fps= 16 q=15.0 size=    1024KiB time=00:00:03.78 bitrate=2217.3kbits/s speed=0.267x elapsed=0:00:14.18    \nframe=  235 fps= 16 q=9.0 size=    1024KiB time=00:00:03.91 bitrate=2141.8kbits/s speed=0.266x elapsed=0:00:14.72    \nframe=  243 fps= 16 q=12.0 size=    1024KiB time=00:00:04.05 bitrate=2071.3kbits/s speed=0.265x elapsed=0:00:15.28    \nframe=  250 fps= 16 q=17.0 size=    1024KiB time=00:00:04.16 bitrate=2013.3kbits/s speed=0.263x elapsed=0:00:15.82    \nframe=  258 fps= 16 q=14.0 size=    2304KiB time=00:00:04.30 bitrate=4389.4kbits/s speed=0.263x elapsed=0:00:16.34    \nframe=  266 fps= 16 q=15.0 size=    2304KiB time=00:00:04.43 bitrate=4257.4kbits/s speed=0.263x elapsed=0:00:16.87    \nframe=  274 fps= 16 q=14.0 size=    2304KiB time=00:00:04.56 bitrate=4133.1kbits/s speed=0.262x elapsed=0:00:17.41    \nframe=  276 fps= 15 q=14.0 size=    2304KiB time=00:00:04.60 bitrate=4103.1kbits/s speed=0.256x elapsed=0:00:17.95    \nframe=  276 fps= 15 q=14.0 size=    2304KiB time=00:00:04.60 bitrate=4103.1kbits/s speed=0.249x elapsed=0:00:18.47    \nframe=  276 fps= 15 q=14.0 size=    2304KiB time=00:00:04.60 bitrate=4103.1kbits/s speed=0.242x elapsed=0:00:18.98    \n[out#0/webm @ 0000017fb04d5040] video:2762KiB audio:0KiB subtitle:0KiB other streams:0KiB global headers:0KiB muxing overhead: 0.100005%\nframe=  300 fps= 16 q=14.0 Lsize=    2764KiB time=00:00:05.00 bitrate=4529.1kbits/s speed=0.262x elapsed=0:00:19.07    \n",
  "seconds": 19.254812717437744,
  "probe_out": {}
}